<?xml version="1.0" encoding="UTF-8"?>
<svg width="90px" height="21px" viewBox="0 0 90 21" version="1.1" xmlns="http://www.w3.org/2000/svg" xmlns:xlink="http://www.w3.org/1999/xlink">
    <!-- Generator: Sketch 53.2 (72643) - https://sketchapp.com -->
    <title>Rentech logo size 21</title>
    <desc>Created with Sketch.</desc>
    <g id="Rentech-logo-size-21" stroke="none" stroke-width="1" fill="none" fill-rule="evenodd">
        <g id="Rentech-logo" fill-rule="nonzero">
            <g id="Right-side-of-logo" transform="translate(44.839286, 0.000000)" fill="#F2F1F3">
                <path d="M15.7332857,16.3263393 C16.0320015,16.3263393 16.2736062,16.4393988 16.4581071,16.6655211 C16.6426081,16.8916435 16.7348571,17.1960344 16.7348571,17.5787029 C16.7348571,18.1179178 16.409789,18.5701557 15.7596429,18.9354302 C15.1622113,19.2659167 14.4857181,19.5311716 13.7301429,19.7312029 C12.9745677,19.9312342 12.2541463,20.0312484 11.5688571,20.0312484 C9.4954182,20.0312484 7.85250606,19.4398604 6.64007143,18.2570666 C5.4276368,17.0742728 4.82142857,15.4566526 4.82142857,13.4041575 C4.82142857,12.0996055 5.08499736,10.9429201 5.61214286,9.93406658 C6.13928835,8.92521305 6.88167378,8.14249361 7.83932143,7.58588476 C8.79696907,7.02927592 9.88199394,6.75097567 11.0944286,6.75097567 C12.2541487,6.75097567 13.2644957,7.00318527 14.1255,7.50761204 C14.9865043,8.0120388 15.6542119,8.72518319 16.1286429,9.64706658 C16.6030738,10.56895 16.8402857,11.6560603 16.8402857,12.9084302 C16.8402857,13.6563734 16.5064319,14.0303393 15.8387143,14.0303393 L8.06335714,14.0303393 C8.16878624,15.2305271 8.51142567,16.1132607 9.09128571,16.6785666 C9.67114576,17.2438724 10.5145659,17.5265211 11.6215714,17.5265211 C12.18386,17.5265211 12.6802478,17.4569461 13.11075,17.3177939 C13.5412522,17.1786416 14.0288544,16.9873102 14.5735714,16.7437939 C15.1007169,16.4654894 15.4872845,16.3263393 15.7332857,16.3263393 Z M11.1735,9.04697567 C10.2773527,9.04697567 9.56132411,9.32527592 9.02539286,9.88188476 C8.48946161,10.4384936 8.16878624,11.2386068 8.06335714,12.2822484 L14.0200714,12.2822484 C13.9849284,11.2212128 13.7213596,10.4167511 13.2293571,9.86883931 C12.7373547,9.32092748 12.0520758,9.04697567 11.1735,9.04697567 Z" id="e"></path>
                <path d="M25.3954286,19.936 C24.1127079,19.936 22.9837549,19.6663966 22.0085357,19.1271818 C21.0333166,18.587967 20.2821455,17.8226413 19.755,16.8311818 C19.2278545,15.8397223 18.9642857,14.6830369 18.9642857,13.3610909 C18.9642857,12.0391449 19.2410329,10.8694142 19.7945357,9.85186364 C20.3480385,8.83431309 21.1255664,8.04724521 22.1271429,7.49063636 C23.1287193,6.93402752 24.2796364,6.65572727 25.5799286,6.65572727 C26.2652177,6.65572727 26.9548894,6.75139298 27.6489643,6.94272727 C28.3430392,7.13406156 28.9536402,7.39496804 29.4807857,7.72545455 C30.0430742,8.0907291 30.3242143,8.55166388 30.3242143,9.10827273 C30.3242143,9.49094131 30.2319652,9.79968064 30.0474643,10.0345 C29.8629634,10.2693194 29.6213586,10.3867273 29.3226429,10.3867273 C29.1293562,10.3867273 28.9272868,10.3432429 28.7164286,10.2562727 C28.5055704,10.1693026 28.2947153,10.06494 28.0838571,9.94318182 C27.6972838,9.71705948 27.3282875,9.53877338 26.9768571,9.40831818 C26.6254268,9.27786298 26.221288,9.21263636 25.7644286,9.21263636 C24.6749946,9.21263636 23.8359672,9.56486011 23.2473214,10.2693182 C22.6586756,10.9737762 22.3643571,11.9869631 22.3643571,13.3089091 C22.3643571,14.6134611 22.6586756,15.617951 23.2473214,16.3224091 C23.8359672,17.0268672 24.6749946,17.3790909 25.7644286,17.3790909 C26.2037165,17.3790909 26.5946769,17.3138643 26.9373214,17.1834091 C27.279966,17.0529539 27.6621407,16.8746678 28.0838571,16.6485455 C28.3474299,16.4919992 28.5758562,16.3745913 28.7691429,16.2963182 C28.9624295,16.2180451 29.1557133,16.1789091 29.349,16.1789091 C29.6301443,16.1789091 29.8673562,16.3006654 30.0606429,16.5441818 C30.2539295,16.7876982 30.3505714,17.0920891 30.3505714,17.4573636 C30.3505714,17.7530621 30.2846792,18.0096201 30.1528929,18.2270455 C30.0211065,18.4444708 29.8058586,18.6401506 29.5071429,18.8140909 C28.9624258,19.1619714 28.3298607,19.4359232 27.6094286,19.6359545 C26.8889964,19.8359858 26.1510038,19.936 25.3954286,19.936 Z" id="c"></path>
                <path d="M40.3238571,6.72572727 C43.346158,6.72572727 44.8572857,8.4738007 44.8572857,11.97 L44.8572857,18.3883636 C44.8572857,18.8753964 44.7123229,19.2580592 44.4223929,19.5363636 C44.1324628,19.8146681 43.7327168,19.9538182 43.2231429,19.9538182 C42.7135689,19.9538182 42.3094301,19.8146681 42.0107143,19.5363636 C41.7119985,19.2580592 41.5626429,18.8753964 41.5626429,18.3883636 L41.5626429,11.97 C41.5626429,11.0481166 41.3737519,10.3741082 40.9959643,9.94795455 C40.6181767,9.5218009 40.0251469,9.30872727 39.2168571,9.30872727 C38.2679953,9.30872727 37.5080386,9.60442129 36.9369643,10.1958182 C36.36589,10.7872151 36.0803571,11.5786314 36.0803571,12.5700909 L36.0803571,18.3883636 C36.0803571,18.8753964 35.9310015,19.2580592 35.6322857,19.5363636 C35.3335699,19.8146681 34.9294311,19.9538182 34.4198571,19.9538182 C33.9102832,19.9538182 33.5105372,19.8146681 33.2206071,19.5363636 C32.9306771,19.2580592 32.7857143,18.8753964 32.7857143,18.3883636 L32.7857143,2.786 C32.7857143,2.33375531 32.9394627,1.96848624 33.2469643,1.69018182 C33.5544658,1.4118774 33.9542118,1.27272727 34.4462143,1.27272727 C34.9382167,1.27272727 35.3335699,1.40318051 35.6322857,1.66409091 C35.9310015,1.9250013 36.0803571,2.2815735 36.0803571,2.73381818 L36.0803571,8.813 C36.5196451,8.13463297 37.1038892,7.61716845 37.8331071,7.26059091 C38.5623251,6.90401337 39.3925668,6.72572727 40.3238571,6.72572727 Z" id="h"></path>
                <path d="M7.10542736e-14,20.7868248 L1.5073682e-13,20.4606884 L1.5073682e-13,19.2474612 L1.5073682e-13,2.76563636 L1.10895547e-13,1.38281818 L7.10542736e-14,-1.42108547e-14 L43.2758571,-1.42108547e-14 C44.3301481,-1.42108547e-14 44.8572857,0.460934785 44.8572857,1.38281818 C44.8572857,2.30470158 44.3301481,2.76563636 43.2758571,2.76563636 L1.74278571,2.76563636 L1.74278571,19.2474612 C1.74278571,19.7518879 1.58903725,20.156293 1.28153571,20.4606884 C1.07653469,20.6636188 0.649356118,20.7723309 7.10542736e-14,20.7868248 Z" id="T"></path>
            </g>
            <g id="Left-side-logo" fill="#6558F5">
                <path d="M35.289,6.68181818 C36.8352934,6.68181818 37.9862105,7.11666232 38.7417857,7.98636364 C39.4973609,8.85606495 39.8751429,10.1692942 39.8751429,11.9260909 L39.8751429,18.3444545 C39.8751429,18.8314873 39.73018,19.2141501 39.44025,19.4924545 C39.15032,19.770759 38.750574,19.9099091 38.241,19.9099091 C37.731426,19.9099091 37.3272872,19.770759 37.0285714,19.4924545 C36.7298556,19.2141501 36.5805,18.8314873 36.5805,18.3444545 L36.5805,12.1087273 C36.5805,11.1172678 36.391609,10.3954265 36.0138214,9.94318182 C35.6360338,9.49093713 35.043004,9.26481818 34.2347143,9.26481818 C33.2858524,9.26481818 32.5258957,9.56051219 31.9548214,10.1519091 C31.3837471,10.743306 31.0982143,11.5347223 31.0982143,12.5261818 L31.0982143,18.3444545 C31.0982143,18.8314873 30.9488586,19.2141501 30.6501429,19.4924545 C30.3514271,19.770759 29.9472883,19.9099091 29.4377143,19.9099091 C28.9281403,19.9099091 28.5283943,19.770759 28.2384643,19.4924545 C27.9485343,19.2141501 27.8035714,18.8314873 27.8035714,18.3444545 L27.8035714,8.24727273 C27.8035714,7.79502804 27.9529271,7.42975897 28.2516429,7.15145455 C28.5503586,6.87315012 28.9544975,6.734 29.4640714,6.734 C29.9209309,6.734 30.29432,6.86880168 30.58425,7.13840909 C30.87418,7.4080165 31.0191429,7.76024025 31.0191429,8.19509091 L31.0191429,8.89954545 C31.4584308,8.18639037 32.0470677,7.63848676 32.7850714,7.25581818 C33.5230751,6.8731496 34.3577096,6.68181818 35.289,6.68181818 Z" id="n"></path>
                <path d="M22.9654286,16.5753636 C23.2641444,16.5753636 23.5057491,16.6884231 23.69025,16.9145455 C23.8747509,17.1406678 23.967,17.4450587 23.967,17.8277273 C23.967,18.3669421 23.6419318,18.81918 22.9917857,19.1844545 C22.3943542,19.514941 21.7178609,19.780196 20.9622857,19.9802273 C20.2067105,20.1802586 19.4862891,20.2802727 18.801,20.2802727 C16.7275611,20.2802727 15.0846489,19.6888847 13.8722143,18.5060909 C12.6597797,17.3232971 12.0535714,15.7056769 12.0535714,13.6531818 C12.0535714,12.3486298 12.3171402,11.1919444 12.8442857,10.1830909 C13.3714312,9.17423738 14.1138166,8.39151793 15.0714643,7.83490909 C16.0291119,7.27830025 17.1141368,7 18.3265714,7 C19.4862915,7 20.4966386,7.2522096 21.3576429,7.75663636 C22.2186472,8.26106313 22.8863548,8.97420751 23.3607857,9.89609091 C23.8352167,10.8179743 24.0724286,11.9050846 24.0724286,13.1574545 C24.0724286,13.9053977 23.7385748,14.2793636 23.0708571,14.2793636 L15.2955,14.2793636 C15.4009291,15.4795515 15.7435685,16.3622851 16.3234286,16.9275909 C16.9032886,17.4928968 17.7467088,17.7755455 18.8537143,17.7755455 C19.4160028,17.7755455 19.9123907,17.7059704 20.3428929,17.5668182 C20.773395,17.427666 21.2609973,17.2363346 21.8057143,16.9928182 C22.3328598,16.7145138 22.7194273,16.5753636 22.9654286,16.5753636 Z M18.4056429,9.296 C17.5094955,9.296 16.793467,9.57430025 16.2575357,10.1309091 C15.7216045,10.6875179 15.4009291,11.4876311 15.2955,12.5312727 L21.2522143,12.5312727 C21.2170713,11.4702371 20.9535025,10.6657755 20.4615,10.1178636 C19.9694975,9.56995181 19.2842187,9.296 18.4056429,9.296 Z" id="e"></path>
                <path d="M8.92699484,7.00695768 C9.38385427,6.97216963 9.74406495,7.06783534 10.0076377,7.29395768 C10.2712104,7.52008002 10.4029948,7.85925845 10.4029948,8.31150313 C10.4029948,8.78114185 10.2887817,9.12901716 10.060352,9.3551395 C9.83192227,9.58126184 9.41899783,9.72910885 8.82156627,9.79868495 L8.03085198,9.87695768 C6.99413252,9.98132184 4.66339527,10.3291971 4.18017857,10.920594 C3.69696187,11.5119909 3.45535714,12.251226 3.45535714,13.1383213 L3.45535714,18.6174122 C3.45535714,19.121839 3.29721587,19.5088503 2.98092857,19.7784577 C2.66464128,20.0480651 2.26928809,20.1828668 1.79485714,20.1828668 C1.3204262,20.1828668 0.929465823,20.0480651 0.621964286,19.7784577 C0.314462748,19.5088503 0.160714286,19.121839 0.160714286,18.6174122 L0.160714286,8.52023041 C0.160714286,8.03319767 0.314462748,7.65923171 0.621964286,7.39832132 C0.929465823,7.13741092 1.31164057,7.00695768 1.7685,7.00695768 C2.22535943,7.00695768 2.59435574,7.13306248 2.8755,7.38527586 C3.15664426,7.63748924 3.29721429,7.99840988 3.29721429,8.46804859 L3.29721429,9.51168495 C3.6310731,8.74634779 4.63530867,8.15495977 5.29424054,7.73750313 C5.9531724,7.3200465 7.74970509,7.08523067 8.55799484,7.03304859 L8.92699484,7.00695768 Z" id="r"></path>
                <path d="M7.10542736e-14,20.7868248 L1.5073682e-13,20.4606884 L1.5073682e-13,19.2474612 L1.5073682e-13,2.76563636 L1.10895547e-13,1.38281818 L7.10542736e-14,-1.42108547e-14 L43.2758571,-1.42108547e-14 C44.3301481,-1.42108547e-14 44.8572857,0.460934785 44.8572857,1.38281818 C44.8572857,2.30470158 44.3301481,2.76563636 43.2758571,2.76563636 L1.74278571,2.76563636 L1.74278571,19.2474612 C1.74278571,19.7518879 1.58903725,20.156293 1.28153571,20.4606884 C1.07653469,20.6636188 0.649356118,20.7723309 7.10542736e-14,20.7868248 Z" id="T-Copy" transform="translate(22.428643, 10.393412) scale(-1, 1) translate(-22.428643, -10.393412) "></path>
            </g>
        </g>
    </g>
</svg>