<svg height="66" viewBox="0 0 72 66" width="72" xmlns="http://www.w3.org/2000/svg"><g fill="none"><path d="m0 65.3300208v-1.025-3.813-51.8000208-4.346-4.346h31.08c3.2800164 0 4.92 1.44865218 4.92 4.346s-1.6399836 4.346-4.92 4.346h-25.658v51.8000208c0 1.5853413-.47832855 2.8563286-1.435 3.813-.63778097.637781-1.96678097.9794477-3.987 1.025z" fill="#f2f1f3" transform="translate(36)"/><path d="m0 65.3300208v-1.025-3.813-51.8000208-4.346-4.346h30.636c3.2800164 0 4.92 1.44865218 4.92 4.346s-1.6399836 4.346-4.92 4.346h-25.214v51.8000208c0 1.5853413-.47832855 2.8563286-1.435 3.813-.63778097.637781-1.96678097.9794477-3.987 1.025z" fill="#6558f5" transform="matrix(-1 0 0 1 35.556 0)"/></g></svg>