<svg height="794" viewBox="0 0 248 794" width="248" xmlns="http://www.w3.org/2000/svg" xmlns:xlink="http://www.w3.org/1999/xlink"><mask id="a" fill="#fff"><path d="m0 22h4c0 9.9411255 8.0588745 18 18 18s18-8.0588745 18-18-8.0588745-18-18-18v-4c12.1502645 0 22 9.8497355 22 22s-9.8497355 22-22 22-22-9.8497355-22-22z" fill="#fff" fill-rule="evenodd"/></mask><mask id="b" fill="#fff"><path d="m22 3.66666667c-10.12 0-18.33333333 8.21333333-18.33333333 18.33333333s8.21333333 18.3333333 18.33333333 18.3333333 18.3333333-8.2133333 18.3333333-18.3333333-8.2133333-18.33333333-18.3333333-18.33333333zm0 5.5c3.0433333 0 5.5 2.45666663 5.5 5.50000003 0 3.0433333-2.4566667 5.5-5.5 5.5s-5.5-2.4566667-5.5-5.5c0-3.0433334 2.4566667-5.50000003 5.5-5.50000003zm0 26.03333333c-4.5833333 0-8.635-2.3466667-11-5.9033333.055-3.6483334 7.3333333-5.6466667 11-5.6466667 3.6483333 0 10.945 1.9983333 11 5.6466667-2.365 3.5566666-6.4166667 5.9033333-11 5.9033333z" fill="#fff" fill-rule="evenodd"/></mask><mask id="c" fill="#fff"><path d="m20 35.5833333-2.4166667-2.2c-8.5833333-7.7833333-14.24999997-12.9166666-14.24999997-19.2166666 0-5.13333337 4.03333334-9.1666667 9.16666667-9.1666667 2.9 0 5.6833333 1.35 7.5 3.48333333 1.8166667-2.13333333 4.6-3.48333333 7.5-3.48333333 5.1333333 0 9.1666667 4.03333333 9.1666667 9.1666667 0 6.3-5.6666667 11.4333333-14.25 19.2333333z" fill="#fff" fill-rule="evenodd"/></mask><mask id="d" fill="#fff"><path d="m20 3.33333333c-9.2 0-16.66666667 7.46666667-16.66666667 16.66666667s7.46666667 16.6666667 16.66666667 16.6666667 16.6666667-7.4666667 16.6666667-16.6666667-7.4666667-16.66666667-16.6666667-16.66666667zm-3.3333333 24.99999997-8.33333337-8.3333333 2.34999997-2.35 5.9833334 5.9666667 12.65-12.65 2.35 2.3666666z" fill="#fff" fill-rule="evenodd"/></mask><mask id="e" fill="#fff"><path d="m31.6666667 5h-23.33333337c-1.83333333 0-3.33333333 1.5-3.33333333 3.33333333v23.33333337c0 1.8333333 1.5 3.3333333 3.33333333 3.3333333h23.33333337c1.8333333 0 3.3333333-1.5 3.3333333-3.3333333v-23.33333337c0-1.83333333-1.5-3.33333333-3.3333333-3.33333333zm-16.6666667 23.3333333h-3.3333333v-11.6666666h3.3333333zm6.6666667 0h-3.3333334v-16.6666666h3.3333334zm6.6666666 0h-3.3333333v-6.6666666h3.3333333z" fill="#fff" fill-rule="evenodd"/></mask><g fill="none" fill-rule="evenodd"><g fill="#167971" fill-rule="evenodd" mask="url(#a)" transform="translate(26 378)"><path d="m0 0h44v44h-44z"/></g><g fill-rule="nonzero"><path d="m36.0546875 11.078125c-.5235953-1.21235573-1.2785684-2.3109809-2.2226563-3.234375-.9447969-.92614859-2.0587381-1.66214548-3.28125-2.16796875-1.2676693-.52658962-2.627312-.79612818-4-.79296875-1.9257812 0-3.8046875.52734375-5.4375 1.5234375-.390625.23828125-.7617187.5-1.1132812.78515625-.3515625-.28515625-.7226563-.546875-1.1132813-.78515625-1.6328125-.99609375-3.5117187-1.5234375-5.4375-1.5234375-1.3867187 0-2.7304687.265625-3.99999995.79296875-1.2265625.5078125-2.33203125 1.23828125-3.28125 2.16796875-.9453255.9223525-1.70047697 2.02123724-2.22265625 3.234375-.54296875 1.2617187-.8203125 2.6015625-.8203125 3.9804687 0 1.3007813.265625 2.65625.79296875 4.0351563.44140625 1.1523437 1.07421875 2.3476562 1.8828125 3.5546875 1.28125 1.9101562 3.04296875 3.9023437 5.23046875 5.921875 3.625 3.3476562 7.2148437 5.6601562 7.3671875 5.7539062l.9257812.59375c.4101563.2617188.9375.2617188 1.3476563 0l.9257812-.59375c.1523438-.0976562 3.7382813-2.40625 7.3671875-5.7539062 2.1875-2.0195313 3.9492188-4.0117188 5.2304688-5.921875.8085937-1.2070313 1.4453125-2.4023438 1.8828125-3.5546875.5273437-1.3789063.7929687-2.734375.7929687-4.0351563.0039063-1.3789062-.2734375-2.71875-.8164062-3.9804687z" fill="#000" transform="translate(26 166)"/><path d="m26 166h40v40h-40z"/></g><path d="m27.2083333 24.8316667 8.9666667 8.9666666c.6562984.6567587.6559252 1.7212016-.0008334 2.3775s-1.7212016.6559253-2.3774999-.0008333l-8.9666667-8.9666667c-5.5633083 4.3089838-13.5175067 3.5527916-18.16919651-1.7273147s-4.39928993-13.2661812.57653866-18.24200978c4.97582855-4.9758286 12.96190355-5.22822847 18.24200975-.57653867 5.2801063 4.65168985 6.0362985 12.60588815 1.7273148 18.16919655zm-10.5416666 1.835c5.5228475 0 10-4.4771525 10-10s-4.4771525-10.00000003-10-10.00000003-10.00000003 4.47715253-10.00000003 10.00000003 4.47715253 10 10.00000003 10z" fill="#000" transform="translate(26 56)"/><path d="m26 56h40v40h-40z" fill-rule="nonzero"/><g fill-rule="nonzero"><path d="m8 7.25v-2.5c0-.5523125.4476875-1 1-1h22c.5523125 0 1 .4476875 1 1v2.5c0 .5523125-.4476875 1-1 1h-22c-.5523125 0-1-.4476875-1-1zm1 11h22c.5523125 0 1-.4476875 1-1v-2.5c0-.5523125-.4476875-1-1-1h-22c-.5523125 0-1 .4476875-1 1v2.5c0 .5523125.4476875 1 1 1zm0 10h22c.5523125 0 1-.4476875 1-1v-2.5c0-.5523125-.4476875-1-1-1h-22c-.5523125 0-1 .4476875-1 1v2.5c0 .5523125.4476875 1 1 1zm-8-19.25h4c.5523125 0 1-.4476875 1-1v-4c0-.5523125-.4476875-1-1-1h-4c-.5523125 0-1 .4476875-1 1v4c0 .5523125.4476875 1 1 1zm0 10h4c.5523125 0 1-.4476875 1-1v-4c0-.5523125-.4476875-1-1-1h-4c-.5523125 0-1 .4476875-1 1v4c0 .5523125.4476875 1 1 1zm0 10h4c.5523125 0 1-.4476875 1-1v-4c0-.5523125-.4476875-1-1-1h-4c-.5523125 0-1 .4476875-1 1v4c0 .5523125.4476875 1 1 1z" fill="#000" transform="translate(32 276)"/><path d="m32 276h32v32h-32z"/></g><g fill="#000" fill-opacity=".54" fill-rule="evenodd"><g mask="url(#b)" transform="translate(26 492)"><path d="m0 0h44v44h-44z"/></g><g mask="url(#c)" transform="translate(136 166)"><path d="m0 0h40v40h-40z"/></g><g mask="url(#d)" transform="translate(26 606)"><path d="m0 0h40v40h-40z"/></g><g mask="url(#e)" transform="translate(26 716)"><path d="m0 0h40v40h-40z"/></g></g></g></svg>